<?xml version="1.0" encoding="UTF-8"?>
<svg id="Layer_2" data-name="Layer 2" xmlns="http://www.w3.org/2000/svg" viewBox="0 0 273.55 70.26">
  <defs>
    <style>
      .cls-1 {
        fill: #fff;
      }
    </style>
  </defs>
  <g id="Layer_1-2" data-name="Layer 1">
    <g>
      <path class="cls-1" d="M199.58,63.23c-.1,.29,.1,.58,.29,.77,.29,.19,.58,.19,.87,.1l1.35-.67-2.21,5.77c-.1,.39,0,.77,.39,.96,.1,.1,.29,.1,.38,.1,.29,0,.48-.1,.67-.29l14.15-19.34,9.14-2.89c.29,.29,.58,.48,.87,.67,.19,.1,.19,.19,.19,.39-.19,1.54-4.33,4.33-7.31,5.87-.29,.1-.39,.39-.39,.67s.19,.58,.39,.67c2.02,1.15,4.23,.67,6.74,.19,1.54-.29,3.08-.58,4.72-.58,.67,0,.96,.1,.96,.19,.1,.39-.87,1.83-2.21,3.08-.29,.29-.39,.67-.1,1.06,.19,.19,.39,.38,.67,.38,.1,0,.19,0,.29-.1,.39-.19,9.04-3.85,14.05-9.33,1.06-1.16,1.64-2.6,1.54-4.24-.1-1.83-.96-3.66-2.02-5.29l4.72-1.64,7.02-2.41,18.28-6.16c.39-.1,.67-.58,.48-1.06-.1-.38-.58-.67-1.06-.48l-18.09,6.06c-8.18-.77-13.18-5.2-14.91-7.7-.67-.96-.77-1.54-.77-1.83,1.64,0,4.81-.48,5.1-2.02,.1-.38,0-1.15-1.44-1.63-1.16-.39-1.06-2.12-.87-2.98h6.06c.29,0,.58-.19,.67-.39,.19-.29,.19-.58,0-.77-.1-.1-1.73-3.08-5.1-3.08-.48,0-.87-.1-1.15-.38-.48-.58-.48-1.64-.48-2.21l2.69-3.37c.39-.48,.39-1.06,.1-1.63-.29-.48-.87-.77-1.44-.67l-5.87,1.06-16.07-2.6c-.67-.03-1.68,0-2.77,.46-1.67,.69-2.85,2.07-2.68,2.33,.16,.24,1.29-.68,3.03-.7,1.28-.02,2.34,.46,3.1,.92,2.47,2.63,4.93,5.25,7.4,7.88l-2.12,2.98c-.29,.38-.29,.87,0,1.25,.29,.39,.67,.58,1.15,.48,.39-.1,.77,0,1.06,.19,.48,.29,.77,1.06,.96,2.02,.29,1.64-1.06,2.79-3.56,4.62-2.21,1.64-5.1,3.75-6.83,7.22-2.89,5.68,.48,9.05,3.37,11.26l-8.18,2.6-23.86-1.15c-.39,0-.67,.19-.87,.58-.1,.39,.09,.77,.38,.96l3.95,1.92-6.26,3.18c-.29,.19-.48,.58-.39,.87,.1,.38,.39,.58,.77,.58h8.18l-4.72,4.81c-.19,.29-.29,.58-.1,.96,.19,.29,.48,.48,.87,.48l7.41-1.06-.58,2.12Z"/>
      <path class="cls-1" d="M241.35,39.18c.58,.19,1.06,.29,1.54,.48l-.96,.29c-.19-.29-.39-.48-.58-.77h0Z"/>
      <g>
        <polygon class="cls-1"  points="34.52 23.22 2.25 23.22 2.25 0 0 0 0 49.37 2.25 49.37 2.25 25.4 34.52 25.4 34.52 49.37 36.77 49.37 36.77 0 34.52 0 34.52 23.22"/>
        <path class="cls-1"  d="M66.6,7.15c.6,0,1.16-.23,1.64-.69,.5-.47,.75-1.02,.75-1.63,0-.66-.25-1.23-.75-1.7-1.02-.96-2.43-.89-3.33,0-.47,.47-.7,1.04-.7,1.69,0,.61,.24,1.15,.7,1.62s1.04,.7,1.69,.7Z"/>
        <path class="cls-1"  d="M55.37,7.15c.6,0,1.16-.23,1.64-.69,.5-.47,.75-1.02,.75-1.63,0-.66-.25-1.23-.75-1.7-1.02-.96-2.43-.89-3.33,0-.47,.47-.7,1.04-.7,1.69,0,.61,.24,1.15,.7,1.62,.47,.47,1.04,.7,1.69,.7Z"/>
        <path class="cls-1"  d="M69.42,17.29c-.89-1.11-2.02-1.98-3.37-2.57-1.33-.59-2.92-.88-4.72-.88-2.43,0-4.61,.49-6.46,1.45-1.82,.95-3.6,2.33-5.29,4.11l-.48,.5,.63,.63c.57,.57,1.05,.52,1.53,.15l.23,.07-.09-.18c.08-.06,.15-.14,.23-.21,.24-.24,.56-.53,.96-.9,.4-.35,.88-.75,1.42-1.17,.52-.4,1.14-.78,1.84-1.12,.71-.34,1.53-.64,2.44-.88,.9-.23,1.92-.35,3.04-.35,1.4,0,2.64,.24,3.68,.71,1.03,.46,1.9,1.14,2.57,2,.69,.88,1.22,1.98,1.59,3.28,.37,1.32,.56,2.85,.56,4.53v3.62c-3.52,.11-6.62,.4-9.24,.86-2.81,.5-5.18,1.19-7.04,2.06-1.92,.89-3.37,2-4.32,3.29-.97,1.32-1.46,2.83-1.46,4.48s.28,3.04,.84,4.2c.56,1.15,1.3,2.11,2.19,2.84,.89,.73,1.9,1.27,3,1.6,1.08,.33,2.17,.49,3.24,.49,1.56,0,3-.16,4.28-.48,1.28-.32,2.5-.78,3.62-1.36,1.11-.58,2.18-1.3,3.18-2.14,.58-.49,1.18-1.03,1.77-1.6l.14,3.78c0,.77,.47,1.26,1.19,1.26h.85V26.47c0-1.9-.2-3.64-.61-5.16-.41-1.56-1.07-2.91-1.95-4.01Zm.3,14.92v9.31c-.79,.8-1.61,1.58-2.44,2.31-.89,.78-1.86,1.47-2.88,2.06-1.02,.59-2.15,1.06-3.37,1.41-1.21,.35-2.58,.52-4.08,.52-.9,0-1.79-.14-2.63-.43-.83-.28-1.58-.7-2.22-1.26-.64-.56-1.17-1.28-1.57-2.16-.4-.87-.6-1.94-.6-3.18,0-2.53,1.62-4.55,4.8-5.98,3.26-1.46,8.31-2.34,15-2.6Z"/>
        <path class="cls-1"  d="M106.83,14.38h-2.17c-.32,0-.63,.13-.87,.36-.14,.14-.26,.3-.33,.41l-10.72,14.74-10.65-14.72c-.05-.07-.12-.18-.22-.31-.23-.31-.58-.48-.99-.48h-2.16l12.58,17.22-13.06,17.77h2.16c.34,0,.65-.14,.88-.39,.1-.11,.2-.23,.32-.38l11.17-15.39,11.15,15.36c.05,.07,.12,.18,.22,.31,.23,.31,.58,.48,.99,.48h2.16l-13.09-17.87,12.62-17.12Z"/>
        <path class="cls-1"  d="M135.6,17.8c-1.19-1.3-2.62-2.3-4.24-2.97-1.61-.66-3.36-.99-5.2-.99-2.4,0-4.57,.43-6.47,1.28-1.9,.85-3.54,2.06-4.86,3.59-1.31,1.53-2.33,3.38-3.01,5.5-.68,2.11-1.03,4.45-1.03,6.98,0,2.87,.36,5.47,1.06,7.74,.71,2.3,1.74,4.27,3.06,5.86,1.33,1.61,2.98,2.86,4.9,3.71,1.91,.85,4.09,1.28,6.49,1.28,1.35,0,2.68-.14,3.96-.43,1.27-.28,2.46-.65,3.53-1.1,1.08-.45,2.03-.95,2.83-1.49,.82-.55,1.45-1.1,1.89-1.63l.4-.5-.59-.59c-.29-.29-.58-.35-.78-.35-.35,0-.71,.21-1.38,.79-.43,.38-1.08,.81-1.93,1.28-.85,.47-1.94,.92-3.25,1.31-1.29,.39-2.86,.59-4.67,.59-1.99,0-3.83-.36-5.45-1.07-1.62-.71-3.01-1.75-4.16-3.11-1.15-1.37-2.06-3.09-2.69-5.13-.64-2.06-.96-4.47-.96-7.17v-.92c0-.07,0-.14,0-.21h25.24c.26,0,.51-.08,.7-.22,.27-.19,.42-.49,.42-.84,0-2.4-.34-4.56-1-6.42-.67-1.87-1.61-3.48-2.8-4.78Zm-9.45-1.85c1.56,0,3.04,.28,4.39,.84,1.34,.55,2.51,1.37,3.5,2.43,.99,1.06,1.77,2.4,2.33,3.98,.5,1.41,.78,3.03,.84,4.82h-23.99c.23-1.63,.63-3.15,1.21-4.53,.66-1.57,1.54-2.93,2.64-4.04,1.09-1.1,2.41-1.97,3.92-2.58,1.52-.61,3.25-.92,5.16-.92Z"/>
        <path class="cls-1"  d="M164.98,14.2c-.99-.24-2.07-.36-3.22-.36-1.61,0-3.08,.25-4.38,.73-1.3,.49-2.48,1.22-3.5,2.17-1.01,.94-1.9,2.1-2.64,3.45-.17,.3-.33,.62-.48,.95l-.06-5.49c0-.77-.47-1.26-1.19-1.26h-.92V49.37h2.25V26.71c1.03-3.43,2.44-6.12,4.19-7.97,1.7-1.81,3.97-2.72,6.74-2.72,.77,0,1.45,.05,2.01,.16,.57,.11,1.06,.23,1.45,.35,.39,.13,.72,.25,.96,.35,.82,.36,1.39,.29,1.68-.2l.61-1.16-.66-.31c-.91-.43-1.86-.77-2.84-1.01Z"/>
        <path class="cls-1"  d="M180.48,.76c-1.11-1.05-2.68-.97-3.66,.01-.51,.51-.77,1.14-.77,1.86,0,.67,.26,1.28,.77,1.79,.51,.51,1.14,.77,1.86,.77,.67,0,1.27-.26,1.81-.76,.55-.51,.82-1.12,.82-1.8,0-.72-.28-1.36-.82-1.87Z"/>
        <rect class="cls-1"  x="177.55" y="14.38" width="2.25" height="34.99"/>
      </g>
    </g>
  </g>
</svg>